<svg xmlns="http://www.w3.org/2000/svg" xmlns:xlink="http://www.w3.org/1999/xlink" width="24" height="24" viewBox="0 0 24 24">
    <defs>
        <path id="a" d="M.857 5.357h22.286A.857.857 0 0 0 24 4.5V2.357a.857.857 0 0 0-.857-.857H.857A.857.857 0 0 0 0 2.357V4.5c0 .473.384.857.857.857zm0 8.572h22.286A.857.857 0 0 0 24 13.07V10.93a.857.857 0 0 0-.857-.858H.857A.857.857 0 0 0 0 10.93v2.142c0 .474.384.858.857.858zm0 8.571h22.286a.857.857 0 0 0 .857-.857V19.5a.857.857 0 0 0-.857-.857H.857A.857.857 0 0 0 0 19.5v2.143c0 .473.384.857.857.857z"/>
    </defs>
    <g fill="none" fill-rule="evenodd">
        <mask id="b" fill="#fff">
            <use xlink:href="#a"/>
        </mask>
        <g fill="#242A42" mask="url(#b)">
            <path d="M0 0h24v24H0z"/>
        </g>
    </g>
</svg>
